<?xml version="1.0" encoding="UTF-8"?>
<!DOCTYPE svg PUBLIC "-//W3C//DTD SVG 1.1//EN" "http://www.w3.org/Graphics/SVG/1.1/DTD/svg11.dtd">
<!-- Creator: CorelDRAW -->
<svg xmlns="http://www.w3.org/2000/svg" xml:space="preserve" width="128.524mm" height="113.453mm" shape-rendering="geometricPrecision" text-rendering="geometricPrecision" image-rendering="optimizeQuality" fill-rule="evenodd" clip-rule="evenodd"
viewBox="0 0 128.524 113.453"
 xmlns:xlink="http://www.w3.org/1999/xlink">
 <g id="Capa_x0020_1">
  <metadata id="CorelCorpID_0Corel-Layer"/>
  <path fill="#AEB19E" d="M67.7752 0.0176c0.1376,0.254 0.2752,0.508 0.4163,0.7655 0.508,-0.1129 1.016,-0.2258 1.524,-0.3352 -0.127,1.0619 0.4833,2.6847 -0.9878,3.0092 0.5468,0.9314 1.5064,0.3528 2.2931,0.1306 0.0529,1.0759 0.9737,1.7215 1.6545,2.4271 0.5186,-0.5221 1.076,-1.0054 1.6687,-1.4464 1.0336,1.0054 2.1766,1.8979 3.4148,2.6458 0.0459,-0.2504 0.1412,-0.7584 0.187,-1.0089 0.6174,2.0461 3.0057,2.0179 4.4485,3.1609 1.1572,0.8854 0.5715,2.4624 0.9455,3.6689 0.3104,0.9101 1.3899,0.9807 2.1484,1.3123 -0.1094,0.2716 -0.3245,0.822 -0.4304,1.0971 2.6917,1.4817 5.6374,2.5471 8.0963,4.4203 1.1536,1.6969 1.8944,3.6689 3.0303,5.3905 0.6139,0.8537 1.711,0.1305 2.5153,0.0317 0.1411,0.4622 0.7338,1.0196 0.2188,1.4429 -0.2258,0.261 -0.4587,0.515 -0.6985,0.762 -0.0036,0.2081 -0.0071,0.6209 -0.0106,0.829 0.9631,1.1289 1.8274,2.66 3.5136,2.667 1.8733,1.009 3.0163,3.3408 5.3199,3.429 0.06,-0.3245 0.12,-0.6491 0.1799,-0.9701 -1.0865,-0.8396 -2.0743,-1.7957 -3.0127,-2.7905 1.6934,0.0917 3.75,-0.5468 5.013,0.9384 -0.9913,0.0635 -1.9826,0.1482 -2.9633,0.3104 0.4656,0.4657 0.9383,0.9243 1.4146,1.3829 1.1112,-0.0211 2.226,-0.0247 3.3408,-0.0141 0.7056,0.6209 1.4288,1.2171 2.1414,1.8309 -1.0443,0.0177 -2.0885,0.0247 -3.1292,0.0283 0.4163,0.4303 0.8326,0.8607 1.2489,1.2946 1.0865,0.0071 2.1731,0.0142 3.2596,0.0247 0.3246,0.3352 0.6456,0.6738 0.9702,1.009 -0.8996,0.0317 -1.7992,0.06 -2.6988,0.1058 0.3352,0.4128 0.6738,0.8255 1.009,1.2383 1.4252,0.1234 3.0903,-0.3846 4.2827,0.635 -1.0513,0.134 -2.1096,0.1799 -3.1609,0.2399 0.3245,0.3951 0.6315,0.8149 1.0266,1.15 0.9525,0.3175 2.4094,-0.3457 2.8786,0.8326 -0.7549,0.0352 -1.5098,0.0529 -2.2648,0.0635 -0.1164,0.4198 -0.2293,0.8396 -0.3422,1.2594 0.7479,0.0458 1.4993,0.0882 2.2507,0.1446 -0.9313,0.2011 -1.8697,0.3669 -2.8116,0.5221 0,-0.6949 0,-1.3899 0.0071,-2.0849 -1.5805,-1.4746 -3.1504,-2.9986 -4.9389,-4.2192 -1.3335,-0.5009 -2.1026,1.1712 -3.0057,1.8662 -3.0762,-3.3796 -6.7486,-6.1136 -10.3152,-8.9394 0.254,-0.3739 0.5115,-0.7444 0.769,-1.1148 -0.9595,-1.277 -1.9508,-2.5435 -2.6775,-3.9687 -0.6386,-1.21 -1.1148,-2.5435 -2.1061,-3.5207 -0.8679,-0.8714 -1.7004,-1.7957 -2.6811,-2.5506 -1.323,-0.9984 -3.0163,-1.2171 -4.4662,-1.965 -1.143,-0.5786 -1.8168,-1.7216 -2.5965,-2.6882 -0.5538,0 -1.1112,0 -1.6651,0 -1.7568,-1.464 -3.5348,-2.8998 -5.3022,-4.3462 -1.4358,-1.1606 -2.794,-2.4412 -4.4415,-3.309 -1.3652,-0.8291 -2.9633,-1.3935 -4.0005,-2.667 -0.7055,-0.8714 -1.4499,-1.7145 -2.2825,-2.466 0.688,-0.448 1.3018,-1.0054 1.8027,-1.6615z"/>
  <path fill="#9999FF" d="M59.5273 4.1592c1.9403,-0.8149 3.8947,-1.584 5.8314,-2.406 1.1853,0.9172 2.2155,2.0144 3.2526,3.0974 1.2841,1.3441 3.0269,2.0779 4.6214,2.9775 -1.0654,1.4181 -2.1731,2.8081 -3.2667,4.2015 0.127,0.3211 0.254,0.6421 0.381,0.9631 -2.9422,1.4993 -5.9937,2.7693 -8.9147,4.318 -0.8114,-1.3546 -1.5134,-2.7728 -2.1484,-4.2157 1.2171,-0.5997 2.4306,-1.2029 3.6265,-1.8415 -1.1042,-2.3742 -2.1766,-4.766 -3.3831,-7.0943z"/>
  <path fill="#AEB19E" d="M75.8644 4.0816c0.889,0.3033 1.7498,0.7196 2.4166,1.4005 -1.1007,0.2857 -1.7533,-0.7303 -2.4166,-1.4005z"/>
  <path fill="#FFCC00" d="M57.1355 5.1258c0.702,-0.2964 1.4287,-0.5257 2.159,-0.7373 0.8078,2.3142 2.1695,4.3779 2.9598,6.6992 -1.1677,0.5609 -2.3072,1.1854 -3.4008,1.8839 0.0247,0.2469 0.067,0.7443 0.0882,0.9948 -3.1362,1.4605 -6.1066,3.2597 -9.3698,4.445 -0.1517,-0.1976 -0.4586,-0.5927 -0.6103,-0.7902 -3.2314,1.3158 -6.4735,2.607 -9.659,4.0322 1.9755,-3.9158 4.191,-7.7082 6.0642,-11.6734 3.8841,-1.7074 7.8564,-3.2103 11.7687,-4.8542z"/>
  <path fill="#9999FF" d="M73.5643 8.015c2.4483,2.1449 5.0306,4.1346 7.5424,6.2019 0.1976,0.1517 0.3493,0.3386 0.448,0.5644 -0.5115,0.5645 -1.0583,1.0971 -1.5487,1.6828 -1.0371,0.5785 -2.2225,0.9454 -3.1044,1.7638 -0.7338,0.7374 -0.5856,1.9086 -0.0988,2.7376 -1.718,1.1465 -3.3902,2.3636 -5.2246,3.3232 -0.5292,-0.374 -1.0407,-0.7867 -1.644,-1.0372 -1.2382,0.3528 -2.5188,0.9031 -3.3408,1.9438 -0.896,1.1218 -2.039,2.0038 -3.0621,3.0021 -0.8396,-0.6914 -1.718,-1.3405 -2.6705,-1.8697 -0.7338,-1.2876 -1.3899,-2.6211 -1.9297,-4.0005 1.2524,-0.7373 2.4941,-1.4958 3.683,-2.3318 -0.2999,-0.7973 -0.5997,-1.5911 -0.8996,-2.3883 3.0621,-1.3688 6.0219,-2.9493 9.0946,-4.2969 -0.1058,-0.4304 -0.2116,-0.8608 -0.3175,-1.2876 1.0372,-1.3265 2.0849,-2.6423 3.0727,-4.0076z"/>
  <path fill="#FFCC00" d="M54.0592 16.9086c1.7251,-0.8961 3.5313,-1.6475 5.1541,-2.7305 0.9031,1.8697 2.1802,3.5665 2.8046,5.5633 -0.9419,0.9454 -2.1378,1.5663 -3.2738,2.2366 -0.1517,-0.0635 -0.4515,-0.187 -0.6032,-0.2505 -0.381,0.0459 -0.762,0.0706 -1.143,0.0811 -1.4076,-1.3299 -2.4589,-3.0197 -2.9387,-4.9z"/>
  <path fill="#9999FF" d="M68.0575 31.8663c-0.9913,-0.6808 -2.1485,-1.0407 -3.3091,-1.3088 -0.321,-0.6844 -0.642,-1.3688 -0.9595,-2.0567 1.845,-1.8274 3.5171,-4.0992 6.1665,-4.7801 2.0567,1.1712 3.6407,2.9915 5.5386,4.385 -0.6032,0.6068 -1.203,1.2136 -1.8062,1.8204 0.5327,0.7337 1.0619,1.471 1.584,2.2154 -0.7054,1.2138 -1.2656,2.0071 -1.6311,2.4825 -0.4716,0.6135 -0.6526,0.5855 -1.2781,0.1928 -0.7341,-0.461 -2.0266,-1.4552 -4.3051,-2.9505z"/>
  <path fill="#FF6633" d="M75.6104 32.3496c-0.2504,-0.9525 -1.0089,-1.658 -1.5557,-2.4482 0.6385,-0.6103 1.277,-1.2242 1.9191,-1.831 -1.3829,-1.1183 -2.8575,-2.1484 -4.0711,-3.4536 1.7675,-1.2736 3.7183,-2.279 5.4469,-3.6125 -0.4057,-0.6562 -1.2206,-1.4111 -0.5785,-2.1943 0.9842,-1.0195 2.4165,-1.4252 3.6265,-2.1061 0.628,-1.0124 1.5664,-1.9755 2.8505,-1.9261 0.8149,0.4057 1.2453,1.2453 1.7109,1.9791 0.8573,0.5432 1.7498,1.0548 2.7376,1.3229 2.6317,0.6914 4.6743,2.7058 6.2442,4.8295 1.083,2.1766 2.1942,4.3639 3.8241,6.1948 -0.5821,0.8713 -1.1395,1.7568 -1.7075,2.6352 0.5821,1.3618 1.6898,2.3354 2.8469,3.2103 -0.7161,1.0195 -1.3899,2.0673 -2.0214,3.1397 -1.2453,-0.4833 -3.115,-1.0477 -4.0216,0.2858 -1.9227,2.6035 -4.4274,4.8225 -5.6551,7.8846 -1.4605,-0.2681 -3.0268,-0.254 -4.3391,-1.016 -0.889,-0.4763 -1.7216,-1.0619 -2.4342,-1.778 -2.5541,-2.5612 -5.0871,-5.1435 -7.6835,-7.6624 0.0495,-0.0283 2.7073,-3.2612 2.861,-3.4537z"/>
  <path fill="#FFCC00" d="M49.2509 19.0217c1.4675,-0.6315 2.9351,-1.2665 4.4097,-1.8838 0.4128,1.1147 0.6985,2.3318 1.5134,3.2385 0.6068,0.7196 1.21,1.4499 1.7921,2.1942 0.3493,-0.1693 0.7021,-0.3351 1.0513,-0.5044 0.9737,1.4852 1.7004,3.1079 2.4906,4.6919 -3.9299,1.9262 -7.6976,4.1593 -11.4758,6.3676 -2.0356,-2.3918 -4.0041,-4.8401 -6.0431,-7.2319 -1.2242,-1.3123 -2.6,-2.4765 -3.8347,-3.7818 3.2067,-1.3229 6.4276,-2.6141 9.6202,-3.9758 0.12,0.2223 0.3563,0.6632 0.4763,0.8855z"/>
  <path fill="#FFCC00" d="M38.9427 22.4401c1.1959,0.9208 2.3072,1.9544 3.2703,3.1221 2.1449,2.5894 4.2897,5.1858 6.4699,7.754 -2.8328,1.5311 -5.5245,3.302 -8.3432,4.8613 -1.4181,-2.2895 -2.6776,-4.6743 -4.124,-6.9462 -0.3563,-0.7373 -1.1006,-1.5769 -0.6032,-2.42 0.9948,-2.1802 2.2119,-4.2545 3.3302,-6.3712z"/>
  <path fill="#99CC33" d="M55.9572 29.7532c1.7603,-0.9807 3.5137,-1.965 5.3163,-2.8681 1.0795,0.8431 2.2049,1.7251 2.7164,3.0445 0.7056,1.1994 0.2505,2.6035 0.1764,3.8982 -0.0176,2.2401 -2.4553,3.1079 -3.7465,4.572 -0.6597,-0.8537 -1.4852,-1.6122 -1.9579,-2.5929 -0.321,-1.0266 -0.3669,-2.1273 -0.7796,-3.1221 -0.4375,-1.0548 -1.1219,-1.9756 -1.7251,-2.9316z"/>
  <path fill="#003399" d="M25.5936 47.9636c3.0092,-6.0819 6.3606,-12.005 9.3486,-18.1046 1.7569,3.1151 3.75,6.0996 5.3587,9.2957 0.9208,0.5292 1.838,1.0584 2.7693,1.5664 -1.7039,1.0336 -3.4396,2.0073 -5.1329,3.0585 0.9172,1.5452 1.8309,3.0974 2.5718,4.7378 -3.2668,1.8345 -6.724,3.4326 -9.5674,5.9161 -1.5981,-1.8133 -3.1432,-3.6759 -4.8119,-5.4222 -0.2222,-0.3069 -0.702,-0.6067 -0.5362,-1.0477z"/>
  <path fill="#99CC33" d="M49.3955 33.288c2.1237,-1.0618 4.1416,-2.3107 6.2407,-3.4078 0.5468,0.9984 1.083,1.9967 1.5945,3.0127 -1.6475,0.7867 -3.2173,1.7145 -4.7801,2.6564 -1.1466,-0.5644 -2.1767,-1.337 -3.0551,-2.2613z"/>
  <path fill="#990000" d="M97.2639 30.6457c2.2014,1.718 4.3463,3.5066 6.5476,5.2247 1.3758,1.0477 2.4377,2.4235 3.6689,3.6265 -1.4429,1.5205 -3.0445,2.8857 -4.4944,4.3886 -0.5468,1.4781 -0.1623,3.1609 -0.254,4.7201 -2.3918,-0.0776 -4.893,0.3705 -7.179,-0.5574 -1.1289,-0.4127 -2.1026,-1.2982 -3.3585,-1.3017 -1.5099,-0.1164 -3.0127,-0.2928 -4.4979,-0.5927 1.3088,-3.1326 3.8417,-5.4821 5.8843,-8.1244 0.7973,0.0105 1.5946,0.0176 2.3919,0.0282 0.261,0.2152 0.5185,0.4268 0.7796,0.642 0.9278,-1.2347 1.7604,-2.5364 2.6035,-3.8311 -1.1501,-0.9561 -2.4694,-1.8662 -2.9563,-3.3549 0.2152,-0.2188 0.6456,-0.6492 0.8643,-0.8679z"/>
  <path fill="#99CC33" d="M64.9848 30.9738c2.7693,0.9843 5.2176,2.6846 7.6905,4.2369 -0.9454,1.852 -1.2629,3.9511 -2.1801,5.8032 -1.6193,0.9383 -3.3691,1.6404 -4.9918,2.5858 -1.2736,-1.1924 -3.048,-1.0583 -4.632,-1.4181 0.2116,-0.6703 0.4833,-1.3265 0.6032,-2.0215 -0.0917,-0.5609 -0.4445,-1.0336 -0.6808,-1.5381 1.0865,-1.1289 2.1554,-2.3213 3.5701,-3.048 0.1658,-1.5381 0.2857,-3.0868 0.6209,-4.6002z"/>
  <path fill="#99CC33" d="M40.6149 38.6079c2.8081,-1.7321 5.6656,-3.3761 8.4878,-5.08 1.016,0.829 1.9121,2.0426 3.2173,2.3742 1.9015,-0.5891 3.4255,-1.9861 5.2952,-2.6635 0.1376,0.9913 0.5645,1.9932 0.4128,2.9986 -0.822,0.8467 -1.845,1.457 -2.7481,2.2084 -0.5363,1.7181 -1.4429,3.2879 -2.0744,4.9671 -1.0054,-0.635 -1.9896,-1.3864 -3.1856,-1.6051 -1.9438,-0.3563 -3.8876,-0.7232 -5.8067,-1.2065 -1.3582,-0.3316 -2.4694,-1.2206 -3.5983,-1.9932z"/>
  <path fill="#99CC33" d="M70.9114 41.1303c0.7903,-1.5734 1.0972,-3.3479 1.8063,-4.9601 2.5611,2.5647 5.1329,5.1224 7.6799,7.7012 0.5927,0.6244 1.3371,1.0689 2.0991,1.464 -3.8355,0.3752 -6.4233,5.6993 -12.7999,4.9454 -2.032,-0.6279 -3.6749,-1.4988 -5.6222,-2.349 2.8892,-7.1624 2.667,-2.9173 6.8368,-6.8015z"/>
  <path fill="#99CC33" d="M63.6548 47.8225c-1.7886,-0.7303 -3.4537,-1.7886 -5.3058,-2.3354 -1.0054,0.5397 -1.8803,1.2876 -2.8222,1.9226 -0.4269,-0.8043 -0.8431,-1.6157 -1.2665,-2.42 0.1694,-0.3458 0.3422,-0.6915 0.5116,-1.0372 -0.307,-0.06 -0.9243,-0.187 -1.2312,-0.2469 0.5962,-1.4359 1.2382,-2.854 1.8697,-4.2722 0.5256,-1.2841 1.7921,-1.9861 2.7411,-2.9175 1.1006,0.9772 2.1272,2.0885 2.8081,3.4043 0.0423,0.9631 -0.374,1.8804 -0.5645,2.8117 1.6404,0.1199 3.3655,0.1446 4.8225,1.023 -0.0194,0.0135 -1.0858,2.9911 -1.5628,4.0676z"/>
  <path fill="#999999" d="M81.6077 45.9633c2.5646,-0.2222 5.0235,0.8044 7.5776,0.8361 -0.702,2.1026 -1.0865,4.3145 -2.0285,6.3324 -0.7831,1.4287 0.5151,2.8469 0.4551,4.3074 -0.0987,1.3123 -0.254,2.6176 -0.2751,3.937 -2.6071,-0.0388 -5.2176,0.1235 -7.8211,-0.0812 -0.2364,-1.6792 -0.0424,-3.4748 -0.7726,-5.0482 -0.1552,-1.7286 0.3175,-3.4325 0.2222,-5.1611 0.0036,-0.9596 -0.5997,-1.7604 -1.0195,-2.5788 1.0493,-0.7166 2.5304,-2.4559 3.6619,-2.5436z"/>
  <path fill="fuchsia" d="M107.512 39.9873c0.956,-0.8926 1.7357,-2.1696 3.1433,-2.3566 1.4746,1.337 3.055,2.5577 4.4802,3.9476 -0.007,0.6526 -0.0141,1.3053 -0.0176,1.9614 -0.762,0.12 -1.524,0.2435 -2.2825,0.3599 -0.4868,0.4692 -0.9736,0.9384 -1.464,1.4076 0.2646,1.3793 0.5398,2.7516 0.8643,4.1204 -2.9986,-0.2258 -5.9937,-0.5292 -8.9993,-0.6068 0.0035,-1.6016 0.007,-3.2032 -0.0106,-4.8013 1.2982,-1.4816 2.8998,-2.6458 4.2862,-4.0322z"/>
  <path fill="#003399" d="M43.4936 40.968c2.0919,0.5644 4.2544,0.7937 6.3535,1.3229 1.3511,0.314 2.4941,1.1289 3.6724,1.8168 0.3951,1.21 0.949,2.3601 1.5275,3.4925 -2.0602,1.4464 -4.6037,1.6122 -6.9956,2.0708 -1.7109,0.2329 -2.921,1.5452 -4.3356,2.3883 -0.4374,0.0071 -0.6103,-0.4515 -0.8467,-0.7337 -1.5663,-2.4095 -2.9562,-4.9319 -4.325,-7.4613 1.6827,-0.9066 3.3443,-1.8591 4.9495,-2.8963z"/>
  <path fill="fuchsia" d="M119.862 71.1313c-0.1316,-0.2267 -0.2691,-0.4473 -0.4261,-0.6464 -1.1818,-1.5593 -2.6352,-2.8822 -4.0111,-4.2651 -0.254,0.5116 -0.4974,1.0231 -0.7408,1.5381 -0.5503,-0.4127 -1.1007,-0.8219 -1.651,-1.2276 -0.0459,-3.9829 0.06,-7.9658 -0.0741,-11.9486 -0.0247,-1.0583 0.1341,-2.1096 0.3281,-3.1468 -0.7479,-2.0002 -0.9666,-4.1451 -1.6228,-6.1736 0.5821,-0.4939 1.2488,-0.8608 1.972,-1.1077 0.381,0.4762 0.7691,0.949 1.1607,1.4217 -0.6809,0.4304 -1.3653,0.8537 -2.0532,1.27 0.2046,0.8572 0.4022,1.7145 0.6103,2.5682 1.3653,0.0106 2.7975,0.1164 4.0499,-0.5398 1.4076,-0.7725 3.1468,-0.6949 4.5614,0.0106 0.6527,1.1183 1.0725,2.3601 1.6828,3.5031 0.5962,1.4288 1.1888,3.1397 0.4798,4.632 -0.3317,0.7973 -0.688,1.584 -1.0125,2.3848 -1.0584,1.1253 -1.8768,2.4553 -2.2402,3.9652 -0.575,0.1658 -1.1535,0.321 -1.7286,0.4868 0.6068,1.5028 2.4871,0.7797 3.7218,0.7832 -0.3316,1.1253 -0.4586,2.3953 0.5292,3.242 0.6773,-1.0548 1.3441,-2.1167 2.0003,-3.1856 0.4092,0.0847 0.8184,0.1694 1.2276,0.254 0.3916,0.7867 0.7585,1.5875 1.0866,2.4024 -0.6527,0.0918 -1.3053,0.1764 -1.9509,0.2646 0.2305,0.2253 0.424,0.415 0.6529,0.6418l-0.2353 0.3013c-0.161,0.2062 -0.7214,0.9008 -0.8868,1.0832 -0.4786,-0.3955 -0.9033,-0.5898 -1.6192,-0.4317 0.0073,0.0154 0.0147,0.0159 0.022,0.0312 -0.0179,-0.0078 -0.6613,0.0924 -0.8636,0.0286 -0.1011,-0.0318 -0.1867,0.0386 -0.2203,0.0284 -0.508,0.5186 -1.0583,1.0089 -1.4852,1.6016 0.0072,0.0408 0.0149,0.0816 0.0229,0.1221l-0.0663 0.0109c-0.1374,0.0224 -1.2389,-0.0113 -1.2203,0.0971z"/>
  <path fill="#AEB19E" d="M121.157 71.0627c0.1434,0.7202 0.419,1.3632 0.6394,2.0645 -1.0384,-0.2359 -1.4049,-1.0842 -1.8914,-1.922 -0.0186,-0.1084 1.0611,-0.1033 1.1975,-0.1313l0.0545 -0.0112z"/>
  <path fill="#AEB19E" d="M123.706 69.2809c0.3321,0.6934 0.6729,1.3569 1.018,2.0471 -0.6914,-0.6879 -1.3373,-1.3353 -2.064,-1.9844 0.0336,0.0102 0.1233,-0.0578 0.2241,-0.0261 0.1849,0.058 0.6376,0.0268 0.8219,-0.0366z"/>
  <path fill="#AEB19E" d="M126.451 68.2948c0.71,0.7037 1.4093,1.4184 2.0763,2.1654 -0.6068,0.1976 -1.21,0.3916 -1.8133,0.5927 -1.9767,-2.0258 -1.3626,-0.6327 -0.263,-2.7581z"/>
  <path fill="#003399" d="M58.4055 45.8504c1.6157,0.8255 3.2138,1.704 4.9459,2.2719 -0.7161,0.4728 -1.4429,0.9384 -2.1766,1.39 0.2293,1.5487 0.7443,3.0339 1.2312,4.5191 -2.2578,0.769 -4.4838,1.6192 -6.7169,2.4553 -1.2312,-2.3601 -2.5506,-4.6743 -3.6795,-7.0838 2.3248,-0.762 4.5685,-1.912 6.3959,-3.5525z"/>
  <path fill="#4D4D4D" d="M87.4003 53.4069c1.2206,-1.9579 1.4111,-4.3285 2.2048,-6.4593 1.0866,0.0811 2.1872,0.1199 3.2456,0.3951 1.2488,0.3845 2.3213,1.2347 3.6265,1.464 1.0301,0.1658 2.0708,0.2575 3.1115,0.3775 -0.321,3.9405 -0.2575,7.9057 -0.8466,11.8251 -3.6195,-0.4692 -7.3378,-0.4092 -10.922,0.3281 0.0811,-1.4394 0.0987,-2.8857 0.2928,-4.318 -0.4198,-1.1607 -0.7691,-2.3636 -0.7126,-3.6125z"/>
  <path fill="black" d="M61.5275 49.8016c0.7832,-0.4728 1.5558,-0.9561 2.3213,-1.4605 2.0673,0.8431 4.0746,1.8556 6.1842,2.5929 2.6459,-0.0529 5.1894,-1.076 7.4295,-2.4413 1.6016,2.4201 0.9243,5.4187 0.6244,8.1069 0.1482,0.1517 0.4481,0.4515 0.5962,0.6032 0.2822,2.4977 0.4057,5.013 0.5292,7.5212 -2.279,0.4163 -4.6002,0.1024 -6.8862,0.4163 -2.1379,0.2752 -4.3427,-0.1587 -6.4347,0.5116 -1.4534,-5.2847 -2.667,-10.6363 -4.3639,-15.8503z"/>
  <path fill="#339966" d="M25.1738 48.5809c2.0073,1.9015 3.6266,4.1628 5.5598,6.1348 -0.8432,0.6915 -1.6757,1.3935 -2.4871,2.1273 -0.3246,-0.127 -0.6526,-0.254 -0.9807,-0.381 -1.1889,0.6244 -2.3919,1.2241 -3.5807,1.8556 0.2222,-3.2561 -0.3246,-6.8298 1.4887,-9.7367z"/>
  <path fill="#339966" d="M32.5433 53.5481c2.6811,-1.6757 5.5386,-3.0692 8.1986,-4.7908 1.1077,1.7604 2.1978,3.5349 3.4149,5.2247 -1.4746,1.0971 -2.8928,2.293 -4.565,3.0797 -1.4852,0.695 -2.6599,1.8556 -3.877,2.9245 -0.7514,-0.8184 -1.4676,-1.6651 -2.159,-2.5364 -0.889,0.9207 -1.845,1.778 -2.8892,2.5188 -0.688,-0.949 -1.457,-1.8309 -2.2896,-2.6529 1.4076,-1.2312 2.727,-2.5717 4.1663,-3.7676z"/>
  <path fill="fuchsia" d="M99.8286 49.1242c4.2263,-0.0529 8.4349,0.4657 12.6365,0.8396 0.4304,1.7251 0.3528,3.5102 0.0776,5.2529 -4.2333,0.5433 -8.4702,-0.2223 -12.7105,-0.2893 -0.0106,-1.9332 -0.0142,-3.87 -0.0036,-5.8032z"/>
  <path fill="#003399" d="M47.0531 50.3625c1.4499,-0.4798 2.988,-0.5856 4.4838,-0.8396 1.2453,2.3988 2.5858,4.7483 3.7288,7.2037 -1.8732,1.0442 -3.8311,1.9156 -5.8243,2.7023 -2.0003,-2.2049 -4.1522,-4.3286 -5.7256,-6.8722 1.1289,-0.709 2.1343,-1.6121 3.3373,-2.1942z"/>
  <path fill="#339966" d="M41.3769 56.6066c0.9983,-0.7972 2.0249,-1.5557 3.0621,-2.3001 1.5169,1.8874 3.1468,3.6865 4.7237,5.528 0.9419,-0.254 1.8732,-0.5609 2.7763,-0.9383 0.7232,3.1115 1.6616,6.1736 2.219,9.3203 -0.8008,0.3846 -1.5804,0.7973 -2.3601,1.2207 -3.4889,-4.2651 -6.9885,-8.5232 -10.421,-12.8306z"/>
  <path fill="#6699FF" d="M58.723 82.0384c1.4499,-1.143 2.8575,-2.3354 4.265,-3.5243 1.5276,0.2223 3.041,0.5221 4.5756,0.7056 0.5256,0.1129 0.9419,-0.2963 1.3793,-0.5115 0.8855,-0.5468 1.8592,-0.9137 2.847,-1.2312 -0.7515,-1.2383 -1.5064,-2.4765 -2.2649,-3.7113 -0.2963,0.1447 -0.5891,0.2893 -0.8819,0.4375 -0.7832,-1.0725 -1.6934,-2.0355 -2.5753,-3.0268 -1.3476,-1.4323 -1.3335,-3.5137 -1.9262,-5.2882 0.4128,-0.1129 0.8255,-0.2258 1.2418,-0.3351 -0.9384,-3.7077 -1.9509,-7.3942 -2.8857,-11.1019 -3.4643,1.1747 -6.8545,2.54 -10.1142,4.2086 0.9067,3.9088 1.898,7.7999 2.9034,11.684 0.441,1.9932 2.092,3.3232 3.3091,4.8472 -0.8361,1.1712 -1.6969,2.3248 -2.5541,3.4784 0.9579,0.9135 1.9883,2.2402 2.6811,3.369z"/>
  <path fill="#33CC66" d="M53.1314 86.5539c1.8027,-1.397 3.5419,-2.8786 5.3693,-4.2474 -0.836,-1.1732 -1.9973,-2.5721 -2.9069,-3.7042 0.7479,-1.1183 1.6475,-2.1237 2.3531,-3.2667 -0.381,-1.1112 -1.3935,-1.8274 -2.1097,-2.7129 -0.9877,-1.0936 -1.0971,-2.6282 -1.4605,-3.9934 -0.8219,0.3739 -1.6368,0.762 -2.4412,1.1677 -0.4762,-0.4657 -0.9525,-0.9313 -1.4252,-1.3935 -3.0515,1.3053 -6.0149,2.8117 -9.0805,4.0817 1.8098,2.106 3.5666,4.2545 5.3587,6.3711 1.6869,1.8349 4.8154,5.6456 6.3429,7.6976z"/>
  <path fill="#33CC66" d="M48.4854 81.7068c-2.729,-3.2597 -5.6883,-6.8554 -8.2938,-10.1918 -5.3729,2.032 -10.6045,4.4168 -15.9491,6.5229 3.563,4.2439 7.1578,8.4702 10.8197,12.6259 1.1782,-0.374 2.1554,-1.1748 3.0938,-1.9509 0.1943,0.1728 9.2357,-6.2127 10.3294,-7.0061z"/>
  <path fill="#FF6666" d="M61.6543 97.4057c-1.9798,-2.437 -4.045,-4.8069 -6.0569,-7.2146 -2.1837,-2.7905 -4.4733,-5.4998 -6.7734,-8.1915 -4.4743,2.987 -8.933,6.171 -13.3279,9.0417 2.1343,2.7269 4.5226,5.2387 6.7521,7.8881 0.8645,0.9974 1.5422,2.3378 1.8316,2.6017 0.2122,0.1935 1.3936,-4.3498 3.6485,-2.3117 1.4421,1.3034 3.6752,5.4319 4.6522,4.8109 0.0361,-0.023 1.6272,-1.9296 2.2134,-2.407 1.1429,-0.9307 5.8482,-3.9263 7.0604,-4.2176z"/>
  <path fill="#FF6666" d="M44.5589 101.819c3.5349,3.7501 6.8439,7.7153 10.213,11.617 3.3831,-3.9123 6.8932,-7.7117 10.2517,-11.6487 -1.075,-1.4977 -1.8592,-2.5204 -3.0209,-3.9505 -1.2122,0.2913 -5.5517,3.0415 -6.6944,3.972 -0.586,0.4772 -2.8392,2.7284 -2.8749,2.7511 -0.9767,0.6206 -2.0756,-2.1104 -3.5172,-3.4133 -0.2486,-0.2247 -0.7178,-0.8295 -0.8884,-1.0187 -0.7569,-0.839 -1.0626,-1.0764 -1.4104,-1.0614 -0.68,0.0293 -1.312,1.5234 -2.0585,2.7525z"/>
  <path fill="fuchsia" d="M99.8604 55.4601c3.4501,0.0353 6.9074,0.2152 10.3364,0.5786 0.4409,-0.1129 0.8678,-0.2787 1.2735,-0.4939 0.3563,0.254 1.0548,0.321 1.0054,0.8996 0.0882,1.4252 0.0035,2.8539 0.0529,4.2791 -1.845,0.1059 -3.683,-0.1305 -5.521,-0.2645 -0.1199,0.2081 -0.3598,0.6209 -0.4797,0.829 -2.4448,0.2469 -4.8578,-0.2822 -7.2919,-0.3175 0.1552,-1.8415 0.3492,-3.683 0.6244,-5.5104z"/>
  <path fill="#339966" d="M23.5016 58.9314c1.3371,-0.7761 2.7305,-1.4428 4.1416,-2.0708 1.9227,2.5189 4.1699,4.7802 5.962,7.3943 -1.2524,-0.4692 -2.4836,-1.2171 -3.87,-1.1042 -2.1801,0.0987 -4.3533,0.3422 -6.537,0.3915 0.1659,-1.531 0.307,-3.0691 0.3034,-4.6108z"/>
  <path fill="#339966" d="M36.0429 60.1909c1.4852,-1.3547 3.1009,-2.5753 4.9883,-3.3162 3.0303,3.7395 6.1242,7.4295 9.1298,11.1902 -1.6439,0.7302 -3.302,1.4393 -4.8895,2.286 -1.7497,-2.2896 -3.6336,-4.4662 -5.4715,-6.6852 -1.7075,-0.575 -2.5929,-2.2331 -3.7571,-3.4748z"/>
  <path fill="#339966" d="M33.39 57.8696c1.8803,1.7215 3.3408,3.8241 5.0659,5.6903 0.702,0.2998 1.4111,0.6456 1.8732,1.2806 1.4782,1.8909 3.0339,3.7182 4.5579,5.5739 -1.1783,0.575 -2.353,1.1571 -3.5172,1.7638 -0.4374,-0.4021 -0.8713,-0.8008 -1.3088,-1.1994 -0.9489,0.4833 -1.9297,0.9102 -2.9421,1.2382 -0.9032,-1.4181 -2.3002,-2.4235 -3.2244,-3.817 -0.5151,-0.7197 -0.3316,-1.6404 -0.3775,-2.4659 0.5574,-0.1164 1.1148,-0.2329 1.6722,-0.3528 -1.2065,-1.8909 -2.8152,-3.4678 -4.1311,-5.2705 0.6738,-0.9066 1.5276,-1.6545 2.3319,-2.4412z"/>
  <path fill="#4D4D4D" d="M87.7707 61.6231c2.2048,0.0106 4.3744,-0.7479 6.5793,-0.4092 1.4781,0.1693 2.9704,0.0953 4.452,0.0423 -0.1375,1.8451 -0.3563,3.6866 -0.3139,5.5387 -3.5913,0.6208 -7.299,-0.18 -10.8233,0.8713 -0.0211,-2.0143 -0.0493,-4.0322 0.1059,-6.0431z"/>
  <path fill="fuchsia" d="M106.976 61.0269c1.8591,-0.1975 3.6936,0.1905 5.5351,0.3669 0.007,1.5311 -0.0741,3.0621 0.0035,4.5932 -0.0741,0.7444 0.8255,1.0266 1.1853,1.531 -0.7584,-0.0776 -1.5098,-0.1375 -2.2683,-0.1905 -0.4057,0.8361 -0.9031,1.6228 -1.4605,2.3637 -0.0741,-0.5257 -0.1447,-1.0478 -0.2152,-1.5734 -0.9384,-0.1094 -1.8838,-0.1799 -2.8293,-0.2082 -0.6491,-2.2754 0.0776,-4.5826 0.0494,-6.8827z"/>
  <path fill="#999999" d="M79.4416 61.8454c2.6564,-0.2893 5.3305,-0.2223 8.001,-0.2505 -0.4269,3.0656 -0.4163,6.1877 -0.1129,9.264 0.0882,0.6985 -0.1764,1.3652 -0.3563,2.0284 -2.1484,0.2258 -4.3145,0.2329 -6.4523,0.5468 -0.568,-3.8417 -0.4727,-7.754 -1.0795,-11.5887z"/>
  <path fill="fuchsia" d="M99.116 61.5737c2.4624,-0.1411 4.9036,0.2399 7.359,0.2964 -0.0635,2.159 -0.6386,4.3638 0.1728,6.4593 -1.912,0.9878 -3.6477,2.4271 -5.8032,2.8399 -0.6985,0.1482 -1.397,0.2822 -2.0919,0.4304 0.1552,-3.3408 0.2892,-6.6816 0.3633,-10.026z"/>
  <path fill="#33CC66" d="M27.2658 63.7751c1.2735,-0.2258 2.6317,-0.5468 3.877,-0.0141 1.1289,0.4692 2.2437,0.9736 3.4431,1.2559 -0.5221,0.3033 -1.0583,0.5785 -1.6016,0.8466 0.0988,0.8185 0.2117,1.6369 0.3246,2.4554 1.2523,1.2946 2.3706,2.7128 3.6442,3.9863 -4.3815,1.8204 -8.756,3.6478 -13.1445,5.4505 -0.501,-0.8361 -1.5346,-1.5628 -1.3547,-2.6423 0.3563,-3.7642 0.508,-7.5424 0.7796,-11.3101 1.3406,0.1164 2.7023,0.2434 4.0323,-0.0282z"/>
  <path fill="#6699FF" d="M76.5559 65.3943c0.9807,-0.1728 1.9826,-0.1905 2.9774,-0.1446 -0.0988,2.7199 0.2964,5.4257 0.5186,8.1315 -1.464,0.2822 -2.9527,0.2858 -4.4309,0.4022 -0.5609,0.6209 -0.5397,1.5769 -0.7761,2.3495 -0.8572,0.3598 -1.7039,0.7443 -2.54,1.15 -0.9454,-1.2559 -1.7674,-2.5929 -2.5435,-3.9546 -0.381,0.0988 -0.762,0.2011 -1.143,0.3034 -1.1465,-1.591 -3.0692,-2.7799 -3.3338,-4.8613 -0.2081,-0.8784 -0.448,-1.7498 -0.7196,-2.607 2.2401,-0.5962 4.572,-0.2046 6.8439,-0.5398 1.7109,-0.2116 3.4431,0.0706 5.147,-0.2293z"/>
  <path fill="#CCCC33" d="M92.512 67.6662c2.0497,0.127 4.057,-0.5538 6.1066,-0.2893 -0.3246,2.6917 -0.4727,5.3975 -0.695,8.0998 -0.1905,0.127 -0.5644,0.3775 -0.7514,0.5045 0.0071,0.2293 0.0247,0.6844 0.0318,0.9102 -1.4288,0.642 -2.8999,1.1853 -4.3639,1.7427 -2.2013,0.9066 -4.639,0.7055 -6.9603,0.9419 -0.1341,-1.009 -0.3986,-2.0179 -0.2963,-3.041 0.508,-1.7744 1.778,-3.2349 2.2577,-5.0165 -0.0458,-1.1818 -0.2116,-2.36 -0.2399,-3.5454 1.6299,-0.2187 3.2668,-0.381 4.9107,-0.3069z"/>
  <path fill="#CCCC33" d="M111.714 67.8955c1.203,-0.007 2.4024,0.1129 3.5878,0.3034 0.8431,0.7726 1.8415,1.4676 2.3212,2.5471 0.4763,1.0936 0.7021,2.2719 1.076,3.4043 -0.6914,1.1641 -1.9191,1.7991 -2.9386,2.6246 -0.9525,0.0459 -1.9227,0.1729 -2.7058,0.7691 0.6103,0.5997 1.3088,1.0936 2.0425,1.5275 0.0071,0.5257 0.0106,1.0548 0.0142,1.584 -0.822,0.4727 -1.5911,1.0372 -2.2649,1.7074 -0.9807,0.2011 -1.965,0.3951 -2.9492,0.5821 -0.2011,-4.3427 -0.1164,-8.6889 -0.0282,-13.0316 0.7549,-0.5327 1.4217,-1.1853 1.845,-2.0179z"/>
  <path fill="#CCCC33" d="M107.117 68.4882c0.7303,-0.0741 1.4605,-0.1482 2.1908,-0.2223 -0.1023,5.1506 0.6244,10.3153 0.0776,15.4517 -0.2188,0.0353 -0.6597,0.1058 -0.8784,0.1376 -0.4657,1.5416 -1.711,2.7799 -3.2668,3.2032 -0.8537,0.1729 -1.7286,0.2117 -2.5894,0.314 -0.3069,-0.12 -0.6103,-0.2434 -0.9136,-0.3634 -1.0196,0.0388 -2.2014,-0.2363 -3.0057,0.568 -0.889,0.7867 -1.905,1.4076 -3.1009,1.5593 -0.1517,0.1199 -0.4516,0.3598 -0.5998,0.4797 -0.8325,-0.2398 -1.6651,-0.4727 -2.5082,-0.6667 -0.5574,-3.0868 -0.5151,-6.2477 -0.9243,-9.3557 1.8662,-0.7937 3.7959,-1.4322 5.6692,-2.2084 0.3774,-0.7761 0.8572,-1.5098 1.1147,-2.3353 0.1658,-1.0407 0.2046,-2.0955 0.4022,-3.1327 3.1256,-0.0917 5.8385,-1.711 8.3326,-3.429z"/>
  <path fill="#CCCC33" d="M75.4376 74.3161c3.7359,-0.2681 7.4506,-0.7867 11.1971,-0.9137 -0.5644,1.1077 -1.1183,2.219 -1.6122,3.3584 0.2576,1.0407 0.0565,2.2437 0.5504,3.1927 1.8909,0.0882 3.7959,-0.2188 5.6868,-0.381 0.1164,3.0233 0.455,6.0325 0.6032,9.0522 -0.5539,-0.4727 -1.0971,-0.9525 -1.6157,-1.464 -0.8608,0.0635 -1.7216,0.2293 -2.5859,0.1835 -0.9243,-0.3175 -1.7286,-0.9173 -2.6811,-1.1501 -2.3354,-0.3704 -4.572,0.5221 -6.7557,1.1959 -0.7338,-0.9525 -1.2418,-2.0778 -2.1131,-2.9245 -1.009,-0.9948 -2.0144,-1.9932 -2.8505,-3.1397 -0.6667,0.4092 -1.3229,0.8396 -1.972,1.277 -0.8749,-1.0689 -1.7992,-2.1131 -2.48,-3.3196 0.4903,-0.5327 1.2206,-0.7197 1.8732,-0.9843 1.6934,-0.575 3.2738,-1.4816 5.0553,-1.7921 -0.1093,-0.7302 -0.2046,-1.4605 -0.2998,-2.1907z"/>
  <path fill="#FF6666" d="M53.4772 86.8714c3.2455,-2.6317 6.4593,-5.3022 9.7049,-7.9304 1.7109,0.4939 3.5278,0.4057 5.2352,0.889 1.1077,0.889 1.7604,2.2154 2.6423,3.3161 0.7197,-0.4163 1.4217,-0.8608 2.1202,-1.3123 1.7604,1.6933 3.5278,3.4431 4.5579,5.6973 -2.159,1.4711 -3.5878,3.6901 -5.327,5.588 -1.4181,1.7004 -2.9104,3.3373 -4.3285,5.0342 -0.5116,0.201 -1.0196,0.4057 -1.5276,0.6138 -0.0211,0.4233 -0.0423,0.8467 -0.0635,1.27 -0.4198,0.4692 -0.8396,0.9384 -1.2523,1.4146 -3.616,-5.1011 -7.9587,-9.6237 -11.7616,-14.5803z"/>
  <rect fill="none" stroke="black" stroke-width="0.2" x="4.2186" y="5.4189" width="5.08" height="4.6567"/>
  <rect fill="fuchsia" stroke="black" stroke-width="0.2" x="4.2186" y="5.4189" width="5.08" height="4.6567"/>
  <path fill="black" fill-rule="nonzero" d="M12.6866 8.2045l0.4014 0.1016c-0.0839,0.3288 -0.2356,0.58 -0.4536,0.7536 -0.2188,0.1728 -0.4855,0.2589 -0.8015,0.2589 -0.3267,0 -0.592,-0.0663 -0.7966,-0.199 -0.2046,-0.1333 -0.3605,-0.3259 -0.4671,-0.5778 -0.1065,-0.2526 -0.1601,-0.5235 -0.1601,-0.8128 0,-0.3154 0.0599,-0.5905 0.1806,-0.8255 0.1206,-0.2349 0.2921,-0.4134 0.515,-0.5355 0.2223,-0.1221 0.4671,-0.1827 0.7345,-0.1827 0.3034,0 0.5581,0.0769 0.7648,0.2314 0.2068,0.1545 0.3507,0.3711 0.4318,0.6512l-0.3944 0.0931c-0.0705,-0.2208 -0.1721,-0.381 -0.3062,-0.4819 -0.1333,-0.1009 -0.3013,-0.1509 -0.5045,-0.1509 -0.2328,0 -0.4268,0.0557 -0.5834,0.1672 -0.1567,0.1122 -0.2667,0.2617 -0.3295,0.4501 -0.0635,0.1877 -0.0953,0.3817 -0.0953,0.5814 0,0.2582 0.0374,0.4826 0.1122,0.6752 0.0755,0.1919 0.1919,0.3358 0.3507,0.4311 0.1587,0.0952 0.3302,0.1425 0.515,0.1425 0.2244,0 0.4142,-0.0649 0.5701,-0.194 0.1559,-0.1298 0.261,-0.3225 0.3161,-0.5772z"/>
  <path id="1" fill="black" fill-rule="nonzero" d="M14.8321 9.2671l-0.3718 0 0 -2.3706c-0.0896,0.0853 -0.2067,0.1707 -0.3521,0.2561 -0.146,0.0853 -0.2766,0.1495 -0.3923,0.1919l0 -0.3591c0.2082,-0.0981 0.3902,-0.2167 0.5461,-0.3556 0.1552,-0.1397 0.266,-0.2745 0.3309,-0.4057l0.2392 0 0 3.043z"/>
  <rect fill="none" stroke="black" stroke-width="0.2" x="4.2186" y="12.1922" width="5.08" height="4.6567"/>
  <rect fill="#990000" stroke="black" stroke-width="0.2" x="4.2186" y="12.1922" width="5.08" height="4.6567"/>
  <path fill="black" fill-rule="nonzero" d="M12.6866 14.9778l0.4014 0.1016c-0.0839,0.3288 -0.2356,0.58 -0.4536,0.7536 -0.2188,0.1728 -0.4855,0.2589 -0.8015,0.2589 -0.3267,0 -0.592,-0.0663 -0.7966,-0.199 -0.2046,-0.1333 -0.3605,-0.3259 -0.4671,-0.5778 -0.1065,-0.2526 -0.1601,-0.5235 -0.1601,-0.8128 0,-0.3154 0.0599,-0.5905 0.1806,-0.8255 0.1206,-0.2349 0.2921,-0.4134 0.515,-0.5355 0.2223,-0.1221 0.4671,-0.1827 0.7345,-0.1827 0.3034,0 0.5581,0.0769 0.7648,0.2314 0.2068,0.1545 0.3507,0.3711 0.4318,0.6512l-0.3944 0.0931c-0.0705,-0.2208 -0.1721,-0.381 -0.3062,-0.4819 -0.1333,-0.1009 -0.3013,-0.1509 -0.5045,-0.1509 -0.2328,0 -0.4268,0.0557 -0.5834,0.1672 -0.1567,0.1122 -0.2667,0.2617 -0.3295,0.4501 -0.0635,0.1877 -0.0953,0.3817 -0.0953,0.5814 0,0.2582 0.0374,0.4826 0.1122,0.6752 0.0755,0.1919 0.1919,0.3358 0.3507,0.4311 0.1587,0.0952 0.3302,0.1425 0.515,0.1425 0.2244,0 0.4142,-0.0649 0.5701,-0.194 0.1559,-0.1298 0.261,-0.3225 0.3161,-0.5772z"/>
  <path id="1" fill="black" fill-rule="nonzero" d="M15.3867 15.6827l0 0.3577 -2.0031 0c-0.0028,-0.0896 0.0113,-0.1757 0.043,-0.2582 0.0508,-0.1369 0.1327,-0.271 0.2449,-0.4036 0.1129,-0.1319 0.2751,-0.285 0.4868,-0.4586 0.3295,-0.2702 0.5524,-0.484 0.6682,-0.6421 0.1157,-0.1573 0.1735,-0.3069 0.1735,-0.4473 0,-0.1474 -0.0529,-0.2716 -0.158,-0.3732 -0.1059,-0.1009 -0.2434,-0.1517 -0.4128,-0.1517 -0.1792,0 -0.3224,0.0536 -0.4296,0.1616 -0.108,0.1072 -0.1623,0.2561 -0.1637,0.4459l-0.3824 -0.0388c0.0261,-0.2858 0.1248,-0.5031 0.2956,-0.6527 0.1707,-0.1495 0.4007,-0.2243 0.6886,-0.2243 0.2907,0 0.5207,0.0811 0.69,0.242 0.1701,0.1615 0.2547,0.3612 0.2547,0.5997 0,0.1213 -0.0247,0.2406 -0.0748,0.3577 -0.0493,0.1171 -0.1319,0.2406 -0.2469,0.3697 -0.115,0.1298 -0.3062,0.3076 -0.5736,0.5334 -0.223,0.1877 -0.3662,0.3147 -0.4297,0.3817 -0.0635,0.0663 -0.1157,0.1334 -0.1573,0.2011l1.4866 0z"/>
  <rect fill="none" stroke="black" stroke-width="0.2" x="4.2186" y="18.9655" width="5.08" height="4.6567"/>
  <rect fill="#4D4D4D" stroke="black" stroke-width="0.2" x="4.2186" y="18.9655" width="5.08" height="4.6567"/>
  <path fill="black" fill-rule="nonzero" d="M12.6866 21.7511l0.4014 0.1016c-0.0839,0.3288 -0.2356,0.58 -0.4536,0.7536 -0.2188,0.1728 -0.4855,0.2589 -0.8015,0.2589 -0.3267,0 -0.592,-0.0663 -0.7966,-0.199 -0.2046,-0.1333 -0.3605,-0.3259 -0.4671,-0.5778 -0.1065,-0.2526 -0.1601,-0.5235 -0.1601,-0.8128 0,-0.3154 0.0599,-0.5905 0.1806,-0.8255 0.1206,-0.2349 0.2921,-0.4134 0.515,-0.5355 0.2223,-0.1221 0.4671,-0.1827 0.7345,-0.1827 0.3034,0 0.5581,0.0769 0.7648,0.2314 0.2068,0.1545 0.3507,0.3711 0.4318,0.6512l-0.3944 0.0931c-0.0705,-0.2208 -0.1721,-0.381 -0.3062,-0.4819 -0.1333,-0.1009 -0.3013,-0.1509 -0.5045,-0.1509 -0.2328,0 -0.4268,0.0557 -0.5834,0.1672 -0.1567,0.1122 -0.2667,0.2617 -0.3295,0.4501 -0.0635,0.1877 -0.0953,0.3817 -0.0953,0.5814 0,0.2582 0.0374,0.4826 0.1122,0.6752 0.0755,0.1919 0.1919,0.3358 0.3507,0.4311 0.1587,0.0952 0.3302,0.1425 0.515,0.1425 0.2244,0 0.4142,-0.0649 0.5701,-0.194 0.1559,-0.1298 0.261,-0.3225 0.3161,-0.5772z"/>
  <path id="1" fill="black" fill-rule="nonzero" d="M13.433 22.0136l0.3718 -0.0494c0.0431,0.211 0.1157,0.3627 0.218,0.4558 0.103,0.0931 0.2279,0.1397 0.3754,0.1397 0.175,0 0.3231,-0.0607 0.4438,-0.182 0.1199,-0.1214 0.1806,-0.2717 0.1806,-0.4509 0,-0.1707 -0.0557,-0.3118 -0.1672,-0.4226 -0.1122,-0.1108 -0.254,-0.1665 -0.4262,-0.1665 -0.0705,0 -0.158,0.0141 -0.2624,0.0416l0.0416 -0.3267c0.0247,0.0029 0.0444,0.0043 0.06,0.0043 0.158,0 0.3005,-0.0416 0.4275,-0.1242 0.127,-0.0825 0.1905,-0.2103 0.1905,-0.3824 0,-0.1362 -0.0465,-0.2498 -0.139,-0.3387 -0.0924,-0.0896 -0.2116,-0.1347 -0.3577,-0.1347 -0.1446,0 -0.2653,0.0458 -0.3612,0.1361 -0.0967,0.0911 -0.1588,0.2279 -0.1863,0.41l-0.3718 -0.0664c0.0451,-0.2497 0.1489,-0.443 0.3097,-0.5799 0.1616,-0.1369 0.362,-0.206 0.6019,-0.206 0.1651,0 0.3175,0.0359 0.4565,0.1065 0.1389,0.0713 0.2455,0.1679 0.3196,0.2907 0.0733,0.1228 0.1107,0.2526 0.1107,0.3909 0,0.1305 -0.0352,0.2497 -0.1058,0.3577 -0.0705,0.1072 -0.1743,0.1926 -0.3118,0.2561 0.1792,0.0409 0.3182,0.127 0.4176,0.2575 0.0988,0.1298 0.1482,0.2928 0.1482,0.4883 0,0.2645 -0.0959,0.4889 -0.2893,0.6731 -0.1926,0.1841 -0.4367,0.2758 -0.7316,0.2758 -0.266,0 -0.4869,-0.079 -0.6625,-0.2377 -0.1757,-0.1581 -0.2759,-0.3634 -0.3006,-0.616z"/>
  <rect fill="none" stroke="black" stroke-width="0.2" x="4.2186" y="25.7388" width="5.08" height="4.6567"/>
  <rect fill="#CCCC33" stroke="black" stroke-width="0.2" x="4.2186" y="25.7388" width="5.08" height="4.6567"/>
  <path fill="black" fill-rule="nonzero" d="M12.6866 28.5244l0.4014 0.1016c-0.0839,0.3288 -0.2356,0.58 -0.4536,0.7536 -0.2188,0.1728 -0.4855,0.2589 -0.8015,0.2589 -0.3267,0 -0.592,-0.0663 -0.7966,-0.199 -0.2046,-0.1333 -0.3605,-0.3259 -0.4671,-0.5778 -0.1065,-0.2526 -0.1601,-0.5235 -0.1601,-0.8128 0,-0.3154 0.0599,-0.5905 0.1806,-0.8255 0.1206,-0.2349 0.2921,-0.4134 0.515,-0.5355 0.2223,-0.1221 0.4671,-0.1827 0.7345,-0.1827 0.3034,0 0.5581,0.0769 0.7648,0.2314 0.2068,0.1545 0.3507,0.3711 0.4318,0.6512l-0.3944 0.0931c-0.0705,-0.2208 -0.1721,-0.381 -0.3062,-0.4819 -0.1333,-0.1009 -0.3013,-0.1509 -0.5045,-0.1509 -0.2328,0 -0.4268,0.0557 -0.5834,0.1672 -0.1567,0.1122 -0.2667,0.2617 -0.3295,0.4501 -0.0635,0.1877 -0.0953,0.3817 -0.0953,0.5814 0,0.2582 0.0374,0.4826 0.1122,0.6752 0.0755,0.1919 0.1919,0.3358 0.3507,0.4311 0.1587,0.0952 0.3302,0.1425 0.515,0.1425 0.2244,0 0.4142,-0.0649 0.5701,-0.194 0.1559,-0.1298 0.261,-0.3225 0.3161,-0.5772z"/>
  <path id="1" fill="black" fill-rule="nonzero" d="M14.6233 29.587l0 -0.7253 -1.3145 0 0 -0.3415 1.3829 -1.9635 0.3041 0 0 1.9635 0.4092 0 0 0.3415 -0.4092 0 0 0.7253 -0.3725 0zm0 -1.0668l0 -1.3659 -0.9483 1.3659 0.9483 0z"/>
  <rect fill="none" stroke="black" stroke-width="0.2" x="4.2186" y="32.5121" width="5.08" height="4.6567"/>
  <rect fill="#999999" stroke="black" stroke-width="0.2" x="4.2186" y="32.5121" width="5.08" height="4.6567"/>
  <path fill="black" fill-rule="nonzero" d="M12.6866 35.2977l0.4014 0.1016c-0.0839,0.3288 -0.2356,0.58 -0.4536,0.7536 -0.2188,0.1728 -0.4855,0.2589 -0.8015,0.2589 -0.3267,0 -0.592,-0.0663 -0.7966,-0.199 -0.2046,-0.1333 -0.3605,-0.3259 -0.4671,-0.5778 -0.1065,-0.2526 -0.1601,-0.5235 -0.1601,-0.8128 0,-0.3154 0.0599,-0.5905 0.1806,-0.8255 0.1206,-0.2349 0.2921,-0.4134 0.515,-0.5355 0.2223,-0.1221 0.4671,-0.1827 0.7345,-0.1827 0.3034,0 0.5581,0.0769 0.7648,0.2314 0.2068,0.1545 0.3507,0.3711 0.4318,0.6512l-0.3944 0.0931c-0.0705,-0.2208 -0.1721,-0.381 -0.3062,-0.4819 -0.1333,-0.1009 -0.3013,-0.1509 -0.5045,-0.1509 -0.2328,0 -0.4268,0.0557 -0.5834,0.1672 -0.1567,0.1122 -0.2667,0.2617 -0.3295,0.4501 -0.0635,0.1877 -0.0953,0.3817 -0.0953,0.5814 0,0.2582 0.0374,0.4826 0.1122,0.6752 0.0755,0.1919 0.1919,0.3358 0.3507,0.4311 0.1587,0.0952 0.3302,0.1425 0.515,0.1425 0.2244,0 0.4142,-0.0649 0.5701,-0.194 0.1559,-0.1298 0.261,-0.3225 0.3161,-0.5772z"/>
  <path id="1" fill="black" fill-rule="nonzero" d="M13.4309 35.5666l0.3909 -0.0332c0.0289,0.1905 0.0959,0.333 0.201,0.429 0.1059,0.0959 0.2329,0.1439 0.3817,0.1439 0.1793,0 0.3309,-0.0677 0.4544,-0.2025 0.1242,-0.1355 0.1863,-0.3147 0.1863,-0.5376 0,-0.2124 -0.0593,-0.3796 -0.1785,-0.5024 -0.1193,-0.1227 -0.2752,-0.1841 -0.4685,-0.1841 -0.12,0 -0.2279,0.0275 -0.3246,0.0818 -0.0966,0.0544 -0.1721,0.1249 -0.2271,0.2117l-0.3493 -0.0452 0.2935 -1.5564 1.5071 0 0 0.3556 -1.2093 0 -0.1637 0.8142c0.182,-0.127 0.3732,-0.1905 0.5729,-0.1905 0.2646,0 0.4875,0.0917 0.6695,0.2752 0.1821,0.1834 0.2731,0.4191 0.2731,0.7069 0,0.2745 -0.0804,0.5115 -0.2399,0.7112 -0.1947,0.2448 -0.46,0.3676 -0.7959,0.3676 -0.2758,0 -0.5009,-0.0769 -0.6752,-0.2314 -0.1742,-0.1545 -0.2737,-0.3591 -0.2984,-0.6138z"/>
  <rect fill="none" stroke="black" stroke-width="0.2" x="4.2186" y="39.2854" width="5.08" height="4.6567"/>
  <rect fill="black" stroke="black" stroke-width="0.2" x="4.2186" y="39.2854" width="5.08" height="4.6567"/>
  <path fill="black" fill-rule="nonzero" d="M12.6866 42.071l0.4014 0.1016c-0.0839,0.3288 -0.2356,0.58 -0.4536,0.7536 -0.2188,0.1728 -0.4855,0.2589 -0.8015,0.2589 -0.3267,0 -0.592,-0.0663 -0.7966,-0.199 -0.2046,-0.1333 -0.3605,-0.3259 -0.4671,-0.5778 -0.1065,-0.2526 -0.1601,-0.5235 -0.1601,-0.8128 0,-0.3154 0.0599,-0.5905 0.1806,-0.8255 0.1206,-0.2349 0.2921,-0.4134 0.515,-0.5355 0.2223,-0.1221 0.4671,-0.1827 0.7345,-0.1827 0.3034,0 0.5581,0.0769 0.7648,0.2314 0.2068,0.1545 0.3507,0.3711 0.4318,0.6512l-0.3944 0.0931c-0.0705,-0.2208 -0.1721,-0.381 -0.3062,-0.4819 -0.1333,-0.1009 -0.3013,-0.1509 -0.5045,-0.1509 -0.2328,0 -0.4268,0.0557 -0.5834,0.1672 -0.1567,0.1122 -0.2667,0.2617 -0.3295,0.4501 -0.0635,0.1877 -0.0953,0.3817 -0.0953,0.5814 0,0.2582 0.0374,0.4826 0.1122,0.6752 0.0755,0.1919 0.1919,0.3358 0.3507,0.4311 0.1587,0.0952 0.3302,0.1425 0.515,0.1425 0.2244,0 0.4142,-0.0649 0.5701,-0.194 0.1559,-0.1298 0.261,-0.3225 0.3161,-0.5772z"/>
  <path id="1" fill="black" fill-rule="nonzero" d="M15.3613 40.8455l-0.3697 0.0289c-0.0332,-0.146 -0.0798,-0.2526 -0.1404,-0.3182 -0.1009,-0.1065 -0.2251,-0.1594 -0.3726,-0.1594 -0.1185,0 -0.2222,0.0331 -0.3118,0.0995 -0.1172,0.0853 -0.2096,0.2102 -0.2773,0.3739 -0.067,0.1637 -0.1023,0.3972 -0.1051,0.7006 0.0896,-0.1362 0.1989,-0.2378 0.3287,-0.3041 0.1292,-0.0656 0.2653,-0.0988 0.4072,-0.0988 0.2483,0 0.4593,0.0911 0.6335,0.2738 0.1743,0.1827 0.2618,0.4184 0.2618,0.7077 0,0.1905 -0.0416,0.3668 -0.1235,0.5305 -0.0818,0.163 -0.1947,0.2886 -0.3379,0.3754 -0.1433,0.0868 -0.3055,0.1298 -0.4876,0.1298 -0.3104,0 -0.563,-0.1136 -0.7584,-0.3422 -0.1962,-0.2279 -0.2935,-0.6039 -0.2935,-1.1275 0,-0.5856 0.1079,-1.011 0.3245,-1.277 0.1884,-0.2314 0.4424,-0.3478 0.7627,-0.3478 0.2378,0 0.4332,0.067 0.5856,0.201 0.1524,0.1334 0.2434,0.3182 0.2738,0.5539zm-1.5191 1.306c0,0.1284 0.0275,0.2512 0.0819,0.3683 0.0543,0.1171 0.1305,0.206 0.2279,0.2674 0.098,0.0614 0.201,0.0924 0.3083,0.0924 0.1573,0 0.2921,-0.0635 0.405,-0.1905 0.1129,-0.127 0.1693,-0.2991 0.1693,-0.5165 0,-0.2095 -0.0557,-0.3746 -0.1672,-0.4953 -0.1115,-0.1206 -0.2519,-0.1806 -0.4212,-0.1806 -0.1687,0 -0.3112,0.06 -0.4283,0.1806 -0.1171,0.1207 -0.1757,0.2787 -0.1757,0.4742z"/>
  <rect fill="none" stroke="black" stroke-width="0.2" x="4.2186" y="46.0587" width="5.08" height="4.6567"/>
  <rect fill="#6699FF" stroke="black" stroke-width="0.2" x="4.2186" y="46.0587" width="5.08" height="4.6567"/>
  <path fill="black" fill-rule="nonzero" d="M12.6866 48.8443l0.4014 0.1016c-0.0839,0.3288 -0.2356,0.58 -0.4536,0.7536 -0.2188,0.1728 -0.4855,0.2589 -0.8015,0.2589 -0.3267,0 -0.592,-0.0663 -0.7966,-0.199 -0.2046,-0.1333 -0.3605,-0.3259 -0.4671,-0.5778 -0.1065,-0.2526 -0.1601,-0.5235 -0.1601,-0.8128 0,-0.3154 0.0599,-0.5905 0.1806,-0.8255 0.1206,-0.2349 0.2921,-0.4134 0.515,-0.5355 0.2223,-0.1221 0.4671,-0.1827 0.7345,-0.1827 0.3034,0 0.5581,0.0769 0.7648,0.2314 0.2068,0.1545 0.3507,0.3711 0.4318,0.6512l-0.3944 0.0931c-0.0705,-0.2208 -0.1721,-0.381 -0.3062,-0.4819 -0.1333,-0.1009 -0.3013,-0.1509 -0.5045,-0.1509 -0.2328,0 -0.4268,0.0557 -0.5834,0.1672 -0.1567,0.1122 -0.2667,0.2617 -0.3295,0.4501 -0.0635,0.1877 -0.0953,0.3817 -0.0953,0.5814 0,0.2582 0.0374,0.4826 0.1122,0.6752 0.0755,0.1919 0.1919,0.3358 0.3507,0.4311 0.1587,0.0952 0.3302,0.1425 0.515,0.1425 0.2244,0 0.4142,-0.0649 0.5701,-0.194 0.1559,-0.1298 0.261,-0.3225 0.3161,-0.5772z"/>
  <path id="1" fill="black" fill-rule="nonzero" d="M13.4556 47.2738l0 -0.3577 1.9614 0 0 0.2892c-0.1926,0.2054 -0.3838,0.4784 -0.5736,0.8185 -0.1891,0.3401 -0.3358,0.6907 -0.4389,1.0498 -0.0747,0.254 -0.122,0.5313 -0.1425,0.8333l-0.3824 0c0.0042,-0.2385 0.0508,-0.5263 0.1404,-0.8643 0.0896,-0.3373 0.218,-0.6632 0.3852,-0.9765 0.168,-0.3132 0.3458,-0.5778 0.5349,-0.7923l-1.4845 0z"/>
  <rect fill="none" stroke="black" stroke-width="0.2" x="4.2186" y="52.832" width="5.08" height="4.6567"/>
  <rect fill="#FF6666" stroke="black" stroke-width="0.2" x="4.2186" y="52.832" width="5.08" height="4.6567"/>
  <path fill="black" fill-rule="nonzero" d="M12.6866 55.6176l0.4014 0.1016c-0.0839,0.3288 -0.2356,0.58 -0.4536,0.7536 -0.2188,0.1728 -0.4855,0.2589 -0.8015,0.2589 -0.3267,0 -0.592,-0.0663 -0.7966,-0.199 -0.2046,-0.1333 -0.3605,-0.3259 -0.4671,-0.5778 -0.1065,-0.2526 -0.1601,-0.5235 -0.1601,-0.8128 0,-0.3154 0.0599,-0.5905 0.1806,-0.8255 0.1206,-0.2349 0.2921,-0.4134 0.515,-0.5355 0.2223,-0.1221 0.4671,-0.1827 0.7345,-0.1827 0.3034,0 0.5581,0.0769 0.7648,0.2314 0.2068,0.1545 0.3507,0.3711 0.4318,0.6512l-0.3944 0.0931c-0.0705,-0.2208 -0.1721,-0.381 -0.3062,-0.4819 -0.1333,-0.1009 -0.3013,-0.1509 -0.5045,-0.1509 -0.2328,0 -0.4268,0.0557 -0.5834,0.1672 -0.1567,0.1122 -0.2667,0.2617 -0.3295,0.4501 -0.0635,0.1877 -0.0953,0.3817 -0.0953,0.5814 0,0.2582 0.0374,0.4826 0.1122,0.6752 0.0755,0.1919 0.1919,0.3358 0.3507,0.4311 0.1587,0.0952 0.3302,0.1425 0.515,0.1425 0.2244,0 0.4142,-0.0649 0.5701,-0.194 0.1559,-0.1298 0.261,-0.3225 0.3161,-0.5772z"/>
  <path id="1" fill="black" fill-rule="nonzero" d="M14.0038 55.037c-0.1545,-0.0565 -0.2688,-0.1369 -0.3436,-0.242 -0.0741,-0.1045 -0.1115,-0.23 -0.1115,-0.3761 0,-0.2208 0.079,-0.4057 0.2378,-0.556 0.1587,-0.1502 0.369,-0.2257 0.6322,-0.2257 0.2645,0 0.4776,0.0769 0.6392,0.2307 0.1608,0.1538 0.2413,0.3408 0.2413,0.5616 0,0.1404 -0.0367,0.2625 -0.1101,0.3669 -0.0741,0.1037 -0.1855,0.1841 -0.3358,0.2406 0.1855,0.0607 0.3273,0.158 0.4247,0.2935 0.0967,0.1347 0.1454,0.2963 0.1454,0.4833 0,0.2596 -0.0918,0.4769 -0.2745,0.6533 -0.1834,0.1764 -0.4247,0.2646 -0.7239,0.2646 -0.2992,0 -0.5397,-0.0882 -0.7232,-0.2653 -0.1834,-0.1771 -0.2752,-0.3979 -0.2752,-0.6625 0,-0.1968 0.0501,-0.3619 0.1503,-0.4953 0.0995,-0.1326 0.242,-0.2236 0.4269,-0.2716zm-0.0748 -0.6308c0,0.1432 0.0466,0.2604 0.1383,0.3514 0.0924,0.091 0.2124,0.1369 0.3598,0.1369 0.1432,0 0.2611,-0.0452 0.3528,-0.1355 0.0917,-0.0903 0.1369,-0.2011 0.1369,-0.3316 0,-0.1369 -0.0466,-0.2512 -0.1411,-0.3443 -0.0946,-0.0932 -0.2117,-0.1397 -0.3528,-0.1397 -0.1418,0 -0.2597,0.0458 -0.3535,0.1361 -0.0938,0.0911 -0.1404,0.2004 -0.1404,0.3267zm-0.1199 1.3998c0,0.1059 0.0254,0.2089 0.0755,0.3076 0.05,0.0995 0.1248,0.1764 0.2243,0.2308 0.0995,0.0543 0.206,0.0818 0.3203,0.0818 0.1778,0 0.3246,-0.0571 0.4403,-0.1722 0.1157,-0.1143 0.1736,-0.2596 0.1736,-0.436 0,-0.1792 -0.0593,-0.3274 -0.1785,-0.4445 -0.1193,-0.1171 -0.2689,-0.1757 -0.4481,-0.1757 -0.1749,0 -0.3196,0.0579 -0.4346,0.1736 -0.115,0.1164 -0.1728,0.2611 -0.1728,0.4346z"/>
  <rect fill="none" stroke="black" stroke-width="0.2" x="4.2186" y="59.6053" width="5.08" height="4.6567"/>
  <rect fill="#33CC66" stroke="black" stroke-width="0.2" x="4.2186" y="59.6053" width="5.08" height="4.6567"/>
  <path fill="black" fill-rule="nonzero" d="M12.6866 62.3909l0.4014 0.1016c-0.0839,0.3288 -0.2356,0.58 -0.4536,0.7536 -0.2188,0.1728 -0.4855,0.2589 -0.8015,0.2589 -0.3267,0 -0.592,-0.0663 -0.7966,-0.199 -0.2046,-0.1333 -0.3605,-0.3259 -0.4671,-0.5778 -0.1065,-0.2526 -0.1601,-0.5235 -0.1601,-0.8128 0,-0.3154 0.0599,-0.5905 0.1806,-0.8255 0.1206,-0.2349 0.2921,-0.4134 0.515,-0.5355 0.2223,-0.1221 0.4671,-0.1827 0.7345,-0.1827 0.3034,0 0.5581,0.0769 0.7648,0.2314 0.2068,0.1545 0.3507,0.3711 0.4318,0.6512l-0.3944 0.0931c-0.0705,-0.2208 -0.1721,-0.381 -0.3062,-0.4819 -0.1333,-0.1009 -0.3013,-0.1509 -0.5045,-0.1509 -0.2328,0 -0.4268,0.0557 -0.5834,0.1672 -0.1567,0.1122 -0.2667,0.2617 -0.3295,0.4501 -0.0635,0.1877 -0.0953,0.3817 -0.0953,0.5814 0,0.2582 0.0374,0.4826 0.1122,0.6752 0.0755,0.1919 0.1919,0.3358 0.3507,0.4311 0.1587,0.0952 0.3302,0.1425 0.515,0.1425 0.2244,0 0.4142,-0.0649 0.5701,-0.194 0.1559,-0.1298 0.261,-0.3225 0.3161,-0.5772z"/>
  <path id="1" fill="black" fill-rule="nonzero" d="M13.4866 62.7529l0.3577 -0.0332c0.0304,0.1679 0.0882,0.29 0.1736,0.3662 0.0854,0.0755 0.1947,0.1136 0.3288,0.1136 0.1143,0 0.2145,-0.0261 0.3006,-0.079 0.086,-0.0522 0.1566,-0.1221 0.2116,-0.2096 0.0558,-0.0875 0.1016,-0.206 0.139,-0.3542 0.0367,-0.1488 0.0557,-0.3005 0.0557,-0.455 0,-0.0163 -0.0007,-0.0417 -0.0021,-0.0741 -0.0748,0.1178 -0.1764,0.2145 -0.3048,0.2878 -0.1291,0.0741 -0.2688,0.1108 -0.4184,0.1108 -0.2511,0 -0.4635,-0.091 -0.6371,-0.273 -0.1735,-0.1821 -0.2603,-0.4212 -0.2603,-0.719 0,-0.3076 0.0903,-0.5545 0.2716,-0.7422 0.1813,-0.1877 0.4085,-0.2815 0.6816,-0.2815 0.1968,0 0.3767,0.0536 0.5404,0.1594 0.163,0.1058 0.2872,0.2575 0.3719,0.4537 0.0846,0.1961 0.127,0.4805 0.127,0.853 0,0.3866 -0.0417,0.695 -0.1256,0.925 -0.0847,0.2293 -0.2096,0.4035 -0.3754,0.5235 -0.1665,0.1199 -0.3605,0.1799 -0.5842,0.1799 -0.237,0 -0.4304,-0.0656 -0.5806,-0.1975 -0.1503,-0.1313 -0.2406,-0.3161 -0.271,-0.5546zm1.5233 -1.3377c0,-0.2131 -0.0564,-0.3831 -0.17,-0.508 -0.1143,-0.1256 -0.2505,-0.1884 -0.4107,-0.1884 -0.1651,0 -0.309,0.0677 -0.4318,0.2025 -0.1227,0.1354 -0.1841,0.3104 -0.1841,0.5249 0,0.1933 0.0586,0.35 0.175,0.4706 0.1164,0.1207 0.2596,0.1806 0.4304,0.1806 0.1728,0 0.3139,-0.0599 0.4247,-0.1806 0.1115,-0.1206 0.1665,-0.2879 0.1665,-0.5016z"/>
  <rect fill="none" stroke="black" stroke-width="0.2" x="4.2186" y="66.3786" width="5.08" height="4.6567"/>
  <rect fill="#339966" stroke="black" stroke-width="0.2" x="4.2186" y="66.3786" width="5.08" height="4.6567"/>
  <path fill="black" fill-rule="nonzero" d="M12.6866 69.1642l0.4014 0.1016c-0.0839,0.3288 -0.2356,0.58 -0.4536,0.7536 -0.2188,0.1728 -0.4855,0.2589 -0.8015,0.2589 -0.3267,0 -0.592,-0.0663 -0.7966,-0.199 -0.2046,-0.1333 -0.3605,-0.3259 -0.4671,-0.5778 -0.1065,-0.2526 -0.1601,-0.5235 -0.1601,-0.8128 0,-0.3154 0.0599,-0.5905 0.1806,-0.8255 0.1206,-0.2349 0.2921,-0.4134 0.515,-0.5355 0.2223,-0.1221 0.4671,-0.1827 0.7345,-0.1827 0.3034,0 0.5581,0.0769 0.7648,0.2314 0.2068,0.1545 0.3507,0.3711 0.4318,0.6512l-0.3944 0.0931c-0.0705,-0.2208 -0.1721,-0.381 -0.3062,-0.4819 -0.1333,-0.1009 -0.3013,-0.1509 -0.5045,-0.1509 -0.2328,0 -0.4268,0.0557 -0.5834,0.1672 -0.1567,0.1122 -0.2667,0.2617 -0.3295,0.4501 -0.0635,0.1877 -0.0953,0.3817 -0.0953,0.5814 0,0.2582 0.0374,0.4826 0.1122,0.6752 0.0755,0.1919 0.1919,0.3358 0.3507,0.4311 0.1587,0.0952 0.3302,0.1425 0.515,0.1425 0.2244,0 0.4142,-0.0649 0.5701,-0.194 0.1559,-0.1298 0.261,-0.3225 0.3161,-0.5772z"/>
  <path id="1" fill="black" fill-rule="nonzero" d="M14.8321 70.2268l-0.3718 0 0 -2.3706c-0.0896,0.0853 -0.2067,0.1707 -0.3521,0.2561 -0.146,0.0853 -0.2766,0.1495 -0.3923,0.1919l0 -0.3591c0.2082,-0.0981 0.3902,-0.2167 0.5461,-0.3556 0.1552,-0.1397 0.266,-0.2745 0.3309,-0.4057l0.2392 0 0 3.043z"/>
  <path id="12" fill="black" fill-rule="nonzero" d="M15.7853 68.7324c0,-0.3584 0.0367,-0.6469 0.1108,-0.865 0.0733,-0.2187 0.1834,-0.3873 0.3287,-0.5058 0.1454,-0.1186 0.3281,-0.1778 0.5483,-0.1778 0.1629,0 0.3055,0.0331 0.4282,0.0987 0.1228,0.065 0.2237,0.1595 0.3041,0.283 0.0797,0.1234 0.1425,0.2737 0.1877,0.4508 0.0458,0.1771 0.0684,0.4156 0.0684,0.7161 0,0.3556 -0.0367,0.6421 -0.1093,0.8608 -0.0734,0.2187 -0.1828,0.3874 -0.3281,0.5066 -0.1454,0.1192 -0.3288,0.1785 -0.551,0.1785 -0.2921,0 -0.5214,-0.1044 -0.688,-0.314 -0.1996,-0.2518 -0.2998,-0.6632 -0.2998,-1.2319zm0.3824 0c0,0.4975 0.0586,0.8284 0.175,0.9935 0.1164,0.1644 0.2596,0.2469 0.4304,0.2469 0.1714,0 0.3146,-0.0833 0.431,-0.2484 0.1165,-0.1651 0.175,-0.496 0.175,-0.992 0,-0.4988 -0.0585,-0.8304 -0.175,-0.9941 -0.1164,-0.1644 -0.261,-0.2462 -0.4346,-0.2462 -0.1714,0 -0.3076,0.0727 -0.4099,0.2173 -0.1277,0.1841 -0.1919,0.5256 -0.1919,1.023z"/>
  <rect fill="none" stroke="black" stroke-width="0.2" x="4.2186" y="73.1519" width="5.08" height="4.6567"/>
  <rect fill="#003399" stroke="black" stroke-width="0.2" x="4.2186" y="73.1519" width="5.08" height="4.6567"/>
  <path fill="black" fill-rule="nonzero" d="M12.6866 75.9375l0.4014 0.1016c-0.0839,0.3288 -0.2356,0.58 -0.4536,0.7536 -0.2188,0.1728 -0.4855,0.2589 -0.8015,0.2589 -0.3267,0 -0.592,-0.0663 -0.7966,-0.199 -0.2046,-0.1333 -0.3605,-0.3259 -0.4671,-0.5778 -0.1065,-0.2526 -0.1601,-0.5235 -0.1601,-0.8128 0,-0.3154 0.0599,-0.5905 0.1806,-0.8255 0.1206,-0.2349 0.2921,-0.4134 0.515,-0.5355 0.2223,-0.1221 0.4671,-0.1827 0.7345,-0.1827 0.3034,0 0.5581,0.0769 0.7648,0.2314 0.2068,0.1545 0.3507,0.3711 0.4318,0.6512l-0.3944 0.0931c-0.0705,-0.2208 -0.1721,-0.381 -0.3062,-0.4819 -0.1333,-0.1009 -0.3013,-0.1509 -0.5045,-0.1509 -0.2328,0 -0.4268,0.0557 -0.5834,0.1672 -0.1567,0.1122 -0.2667,0.2617 -0.3295,0.4501 -0.0635,0.1877 -0.0953,0.3817 -0.0953,0.5814 0,0.2582 0.0374,0.4826 0.1122,0.6752 0.0755,0.1919 0.1919,0.3358 0.3507,0.4311 0.1587,0.0952 0.3302,0.1425 0.515,0.1425 0.2244,0 0.4142,-0.0649 0.5701,-0.194 0.1559,-0.1298 0.261,-0.3225 0.3161,-0.5772z"/>
  <path id="1" fill="black" fill-rule="nonzero" d="M14.8321 77.0001l-0.3718 0 0 -2.3706c-0.0896,0.0853 -0.2067,0.1707 -0.3521,0.2561 -0.146,0.0853 -0.2766,0.1495 -0.3923,0.1919l0 -0.3591c0.2082,-0.0981 0.3902,-0.2167 0.5461,-0.3556 0.1552,-0.1397 0.266,-0.2745 0.3309,-0.4057l0.2392 0 0 3.043z"/>
  <path id="12" fill="black" fill-rule="nonzero" d="M16.8725 77.0001l-0.3718 0 0 -2.3706c-0.0896,0.0853 -0.2067,0.1707 -0.3521,0.2561 -0.146,0.0853 -0.2766,0.1495 -0.3923,0.1919l0 -0.3591c0.2082,-0.0981 0.3902,-0.2167 0.5461,-0.3556 0.1552,-0.1397 0.266,-0.2745 0.3309,-0.4057l0.2392 0 0 3.043z"/>
  <rect fill="none" stroke="black" stroke-width="0.2" x="4.2186" y="79.9252" width="5.08" height="4.6567"/>
  <rect fill="#FFCC00" stroke="black" stroke-width="0.2" x="4.2186" y="79.9252" width="5.08" height="4.6567"/>
  <path fill="black" fill-rule="nonzero" d="M12.6866 82.7108l0.4014 0.1016c-0.0839,0.3288 -0.2356,0.58 -0.4536,0.7536 -0.2188,0.1728 -0.4855,0.2589 -0.8015,0.2589 -0.3267,0 -0.592,-0.0663 -0.7966,-0.199 -0.2046,-0.1333 -0.3605,-0.3259 -0.4671,-0.5778 -0.1065,-0.2526 -0.1601,-0.5235 -0.1601,-0.8128 0,-0.3154 0.0599,-0.5905 0.1806,-0.8255 0.1206,-0.2349 0.2921,-0.4134 0.515,-0.5355 0.2223,-0.1221 0.4671,-0.1827 0.7345,-0.1827 0.3034,0 0.5581,0.0769 0.7648,0.2314 0.2068,0.1545 0.3507,0.3711 0.4318,0.6512l-0.3944 0.0931c-0.0705,-0.2208 -0.1721,-0.381 -0.3062,-0.4819 -0.1333,-0.1009 -0.3013,-0.1509 -0.5045,-0.1509 -0.2328,0 -0.4268,0.0557 -0.5834,0.1672 -0.1567,0.1122 -0.2667,0.2617 -0.3295,0.4501 -0.0635,0.1877 -0.0953,0.3817 -0.0953,0.5814 0,0.2582 0.0374,0.4826 0.1122,0.6752 0.0755,0.1919 0.1919,0.3358 0.3507,0.4311 0.1587,0.0952 0.3302,0.1425 0.515,0.1425 0.2244,0 0.4142,-0.0649 0.5701,-0.194 0.1559,-0.1298 0.261,-0.3225 0.3161,-0.5772z"/>
  <path id="1" fill="black" fill-rule="nonzero" d="M14.8321 83.7734l-0.3718 0 0 -2.3706c-0.0896,0.0853 -0.2067,0.1707 -0.3521,0.2561 -0.146,0.0853 -0.2766,0.1495 -0.3923,0.1919l0 -0.3591c0.2082,-0.0981 0.3902,-0.2167 0.5461,-0.3556 0.1552,-0.1397 0.266,-0.2745 0.3309,-0.4057l0.2392 0 0 3.043z"/>
  <path id="12" fill="black" fill-rule="nonzero" d="M17.7411 83.4157l0 0.3577 -2.0031 0c-0.0028,-0.0896 0.0113,-0.1757 0.043,-0.2582 0.0508,-0.1369 0.1327,-0.271 0.2449,-0.4036 0.1129,-0.1319 0.2751,-0.285 0.4868,-0.4586 0.3295,-0.2702 0.5524,-0.484 0.6682,-0.6421 0.1157,-0.1573 0.1735,-0.3069 0.1735,-0.4473 0,-0.1474 -0.0529,-0.2716 -0.158,-0.3732 -0.1059,-0.1009 -0.2434,-0.1517 -0.4128,-0.1517 -0.1792,0 -0.3224,0.0536 -0.4296,0.1616 -0.108,0.1072 -0.1623,0.2561 -0.1637,0.4459l-0.3824 -0.0388c0.0261,-0.2858 0.1248,-0.5031 0.2956,-0.6527 0.1707,-0.1495 0.4007,-0.2243 0.6886,-0.2243 0.2907,0 0.5207,0.0811 0.69,0.242 0.1701,0.1615 0.2547,0.3612 0.2547,0.5997 0,0.1213 -0.0247,0.2406 -0.0748,0.3577 -0.0493,0.1171 -0.1319,0.2406 -0.2469,0.3697 -0.115,0.1298 -0.3062,0.3076 -0.5736,0.5334 -0.223,0.1877 -0.3662,0.3147 -0.4297,0.3817 -0.0635,0.0663 -0.1157,0.1334 -0.1573,0.2011l1.4866 0z"/>
  <rect fill="none" stroke="black" stroke-width="0.2" x="4.2186" y="86.6985" width="5.08" height="4.6567"/>
  <rect fill="#9999FF" stroke="black" stroke-width="0.2" x="4.2186" y="86.6985" width="5.08" height="4.6567"/>
  <path fill="black" fill-rule="nonzero" d="M12.6866 89.4841l0.4014 0.1016c-0.0839,0.3288 -0.2356,0.58 -0.4536,0.7536 -0.2188,0.1728 -0.4855,0.2589 -0.8015,0.2589 -0.3267,0 -0.592,-0.0663 -0.7966,-0.199 -0.2046,-0.1333 -0.3605,-0.3259 -0.4671,-0.5778 -0.1065,-0.2526 -0.1601,-0.5235 -0.1601,-0.8128 0,-0.3154 0.0599,-0.5905 0.1806,-0.8255 0.1206,-0.2349 0.2921,-0.4134 0.515,-0.5355 0.2223,-0.1221 0.4671,-0.1827 0.7345,-0.1827 0.3034,0 0.5581,0.0769 0.7648,0.2314 0.2068,0.1545 0.3507,0.3711 0.4318,0.6512l-0.3944 0.0931c-0.0705,-0.2208 -0.1721,-0.381 -0.3062,-0.4819 -0.1333,-0.1009 -0.3013,-0.1509 -0.5045,-0.1509 -0.2328,0 -0.4268,0.0557 -0.5834,0.1672 -0.1567,0.1122 -0.2667,0.2617 -0.3295,0.4501 -0.0635,0.1877 -0.0953,0.3817 -0.0953,0.5814 0,0.2582 0.0374,0.4826 0.1122,0.6752 0.0755,0.1919 0.1919,0.3358 0.3507,0.4311 0.1587,0.0952 0.3302,0.1425 0.515,0.1425 0.2244,0 0.4142,-0.0649 0.5701,-0.194 0.1559,-0.1298 0.261,-0.3225 0.3161,-0.5772z"/>
  <path id="1" fill="black" fill-rule="nonzero" d="M14.8321 90.5467l-0.3718 0 0 -2.3706c-0.0896,0.0853 -0.2067,0.1707 -0.3521,0.2561 -0.146,0.0853 -0.2766,0.1495 -0.3923,0.1919l0 -0.3591c0.2082,-0.0981 0.3902,-0.2167 0.5461,-0.3556 0.1552,-0.1397 0.266,-0.2745 0.3309,-0.4057l0.2392 0 0 3.043z"/>
  <path id="12" fill="black" fill-rule="nonzero" d="M15.7874 89.7466l0.3718 -0.0494c0.0431,0.211 0.1157,0.3627 0.218,0.4558 0.103,0.0931 0.2279,0.1397 0.3754,0.1397 0.175,0 0.3231,-0.0607 0.4438,-0.182 0.1199,-0.1214 0.1806,-0.2717 0.1806,-0.4509 0,-0.1707 -0.0557,-0.3118 -0.1672,-0.4226 -0.1122,-0.1108 -0.254,-0.1665 -0.4262,-0.1665 -0.0705,0 -0.158,0.0141 -0.2624,0.0416l0.0416 -0.3267c0.0247,0.0029 0.0444,0.0043 0.06,0.0043 0.158,0 0.3005,-0.0416 0.4275,-0.1242 0.127,-0.0825 0.1905,-0.2103 0.1905,-0.3824 0,-0.1362 -0.0465,-0.2498 -0.139,-0.3387 -0.0924,-0.0896 -0.2116,-0.1347 -0.3577,-0.1347 -0.1446,0 -0.2653,0.0458 -0.3612,0.1361 -0.0967,0.0911 -0.1588,0.2279 -0.1863,0.41l-0.3718 -0.0664c0.0451,-0.2497 0.1489,-0.443 0.3097,-0.5799 0.1616,-0.1369 0.362,-0.206 0.6019,-0.206 0.1651,0 0.3175,0.0359 0.4565,0.1065 0.1389,0.0713 0.2455,0.1679 0.3196,0.2907 0.0733,0.1228 0.1107,0.2526 0.1107,0.3909 0,0.1305 -0.0352,0.2497 -0.1058,0.3577 -0.0705,0.1072 -0.1743,0.1926 -0.3118,0.2561 0.1792,0.0409 0.3182,0.127 0.4176,0.2575 0.0988,0.1298 0.1482,0.2928 0.1482,0.4883 0,0.2645 -0.0959,0.4889 -0.2893,0.6731 -0.1926,0.1841 -0.4367,0.2758 -0.7316,0.2758 -0.266,0 -0.4869,-0.079 -0.6625,-0.2377 -0.1757,-0.1581 -0.2759,-0.3634 -0.3006,-0.616z"/>
  <rect fill="none" stroke="black" stroke-width="0.2" x="4.2186" y="93.4718" width="5.08" height="4.6567"/>
  <rect fill="#FF6633" stroke="black" stroke-width="0.2" x="4.2186" y="93.4718" width="5.08" height="4.6567"/>
  <path fill="black" fill-rule="nonzero" d="M12.6866 96.2574l0.4014 0.1016c-0.0839,0.3288 -0.2356,0.58 -0.4536,0.7536 -0.2188,0.1728 -0.4855,0.2589 -0.8015,0.2589 -0.3267,0 -0.592,-0.0663 -0.7966,-0.199 -0.2046,-0.1333 -0.3605,-0.3259 -0.4671,-0.5778 -0.1065,-0.2526 -0.1601,-0.5235 -0.1601,-0.8128 0,-0.3154 0.0599,-0.5905 0.1806,-0.8255 0.1206,-0.2349 0.2921,-0.4134 0.515,-0.5355 0.2223,-0.1221 0.4671,-0.1827 0.7345,-0.1827 0.3034,0 0.5581,0.0769 0.7648,0.2314 0.2068,0.1545 0.3507,0.3711 0.4318,0.6512l-0.3944 0.0931c-0.0705,-0.2208 -0.1721,-0.381 -0.3062,-0.4819 -0.1333,-0.1009 -0.3013,-0.1509 -0.5045,-0.1509 -0.2328,0 -0.4268,0.0557 -0.5834,0.1672 -0.1567,0.1122 -0.2667,0.2617 -0.3295,0.4501 -0.0635,0.1877 -0.0953,0.3817 -0.0953,0.5814 0,0.2582 0.0374,0.4826 0.1122,0.6752 0.0755,0.1919 0.1919,0.3358 0.3507,0.4311 0.1587,0.0952 0.3302,0.1425 0.515,0.1425 0.2244,0 0.4142,-0.0649 0.5701,-0.194 0.1559,-0.1298 0.261,-0.3225 0.3161,-0.5772z"/>
  <path id="1" fill="black" fill-rule="nonzero" d="M14.8321 97.32l-0.3718 0 0 -2.3706c-0.0896,0.0853 -0.2067,0.1707 -0.3521,0.2561 -0.146,0.0853 -0.2766,0.1495 -0.3923,0.1919l0 -0.3591c0.2082,-0.0981 0.3902,-0.2167 0.5461,-0.3556 0.1552,-0.1397 0.266,-0.2745 0.3309,-0.4057l0.2392 0 0 3.043z"/>
  <path id="12" fill="black" fill-rule="nonzero" d="M16.9777 97.32l0 -0.7253 -1.3145 0 0 -0.3415 1.3829 -1.9635 0.3041 0 0 1.9635 0.4092 0 0 0.3415 -0.4092 0 0 0.7253 -0.3725 0zm0 -1.0668l0 -1.3659 -0.9483 1.3659 0.9483 0z"/>
  <rect fill="none" stroke="black" stroke-width="0.2" x="4.2186" y="100.245" width="5.08" height="4.6567"/>
  <rect fill="#99CC33" stroke="black" stroke-width="0.2" x="4.2186" y="100.245" width="5.08" height="4.6567"/>
  <path fill="black" fill-rule="nonzero" d="M12.6866 103.031l0.4014 0.1016c-0.0839,0.3288 -0.2356,0.58 -0.4536,0.7536 -0.2188,0.1728 -0.4855,0.2589 -0.8015,0.2589 -0.3267,0 -0.592,-0.0663 -0.7966,-0.199 -0.2046,-0.1333 -0.3605,-0.3259 -0.4671,-0.5778 -0.1065,-0.2526 -0.1601,-0.5235 -0.1601,-0.8128 0,-0.3154 0.0599,-0.5905 0.1806,-0.8255 0.1206,-0.2349 0.2921,-0.4134 0.515,-0.5355 0.2223,-0.1221 0.4671,-0.1827 0.7345,-0.1827 0.3034,0 0.5581,0.0769 0.7648,0.2314 0.2068,0.1545 0.3507,0.3711 0.4318,0.6512l-0.3944 0.0931c-0.0705,-0.2208 -0.1721,-0.381 -0.3062,-0.4819 -0.1333,-0.1009 -0.3013,-0.1509 -0.5045,-0.1509 -0.2328,0 -0.4268,0.0557 -0.5834,0.1672 -0.1567,0.1122 -0.2667,0.2617 -0.3295,0.4501 -0.0635,0.1877 -0.0953,0.3817 -0.0953,0.5814 0,0.2582 0.0374,0.4826 0.1122,0.6752 0.0755,0.1919 0.1919,0.3358 0.3507,0.4311 0.1587,0.0952 0.3302,0.1425 0.515,0.1425 0.2244,0 0.4142,-0.0649 0.5701,-0.194 0.1559,-0.1298 0.261,-0.3225 0.3161,-0.5772z"/>
  <path id="1" fill="black" fill-rule="nonzero" d="M14.8321 104.093l-0.3718 0 0 -2.3706c-0.0896,0.0853 -0.2067,0.1707 -0.3521,0.2561 -0.146,0.0853 -0.2766,0.1495 -0.3923,0.1919l0 -0.3591c0.2082,-0.0981 0.3902,-0.2167 0.5461,-0.3556 0.1552,-0.1397 0.266,-0.2745 0.3309,-0.4057l0.2392 0 0 3.043z"/>
  <path id="12" fill="black" fill-rule="nonzero" d="M15.7853 103.3l0.3909 -0.0332c0.0289,0.1905 0.0959,0.333 0.201,0.429 0.1059,0.0959 0.2329,0.1439 0.3817,0.1439 0.1793,0 0.3309,-0.0677 0.4544,-0.2025 0.1242,-0.1355 0.1863,-0.3147 0.1863,-0.5376 0,-0.2124 -0.0593,-0.3796 -0.1785,-0.5024 -0.1193,-0.1227 -0.2752,-0.1841 -0.4685,-0.1841 -0.12,0 -0.2279,0.0275 -0.3246,0.0818 -0.0966,0.0544 -0.1721,0.1249 -0.2271,0.2117l-0.3493 -0.0452 0.2935 -1.5564 1.5071 0 0 0.3556 -1.2093 0 -0.1637 0.8142c0.182,-0.127 0.3732,-0.1905 0.5729,-0.1905 0.2646,0 0.4875,0.0917 0.6695,0.2752 0.1821,0.1834 0.2731,0.4191 0.2731,0.7069 0,0.2745 -0.0804,0.5115 -0.2399,0.7112 -0.1947,0.2448 -0.46,0.3676 -0.7959,0.3676 -0.2758,0 -0.5009,-0.0769 -0.6752,-0.2314 -0.1742,-0.1545 -0.2737,-0.3591 -0.2984,-0.6138z"/>
 </g>
</svg>
